<?xml version="1.0" encoding="UTF-8"?>
<!DOCTYPE svg PUBLIC "-//W3C//DTD SVG 1.1//EN" "http://www.w3.org/Graphics/SVG/1.1/DTD/svg11.dtd">
<svg xmlns="http://www.w3.org/2000/svg" version="1.1" width="512px" height="512px" style="shape-rendering:geometricPrecision; text-rendering:geometricPrecision; image-rendering:optimizeQuality; fill-rule:evenodd; clip-rule:evenodd" xmlns:xlink="http://www.w3.org/1999/xlink">
<g><path style="opacity:1" fill="#6d8311" d="M 63.5,25.5 C 63.5,32.8333 63.5,40.1667 63.5,47.5C 61.8333,47.5 60.1667,47.5 58.5,47.5C 44.1667,47.5 29.8333,47.5 15.5,47.5C 15.3337,40.1591 15.5003,32.8258 16,25.5C 17.8333,21 21,17.8333 25.5,16C 34.8333,15.3333 44.1667,15.3333 53.5,16C 58.02,18.0223 61.3533,21.189 63.5,25.5 Z"/></g>
<g><path style="opacity:0.998" fill="#b42827" d="M 111.5,25.5 C 111.5,32.8333 111.5,40.1667 111.5,47.5C 109.833,47.5 108.167,47.5 106.5,47.5C 92.1667,47.5 77.8333,47.5 63.5,47.5C 63.5,40.1667 63.5,32.8333 63.5,25.5C 68.769,16.2118 76.769,12.8785 87.5,15.5C 98.231,12.8785 106.231,16.2118 111.5,25.5 Z"/></g>
<g><path style="opacity:1" fill="#6d8311" d="M 148.5,15.5 C 153.143,17.9788 156.643,21.6455 159,26.5C 159.5,33.4921 159.666,40.4921 159.5,47.5C 157.833,47.5 156.167,47.5 154.5,47.5C 140.167,47.5 125.833,47.5 111.5,47.5C 111.5,40.1667 111.5,32.8333 111.5,25.5C 113.647,21.189 116.98,18.0223 121.5,16C 130.494,15.5002 139.494,15.3336 148.5,15.5 Z"/></g>
<g><path style="opacity:1" fill="#72401f" d="M 148.5,15.5 C 263.833,15.5 379.167,15.5 494.5,15.5C 484.748,24.2143 474.414,32.2143 463.5,39.5C 456.385,39.0753 449.385,39.5753 442.5,41C 436.333,47.1667 430.167,53.3333 424,59.5C 423.5,52.8417 423.334,46.175 423.5,39.5C 418.167,39.5 412.833,39.5 407.5,39.5C 407.5,53.8333 407.5,68.1667 407.5,82.5C 405.116,84.8847 402.45,86.8847 399.5,88.5C 399.666,78.1613 399.5,67.828 399,57.5C 393.359,43.0035 382.692,37.0035 367,39.5C 351.707,37.3036 341.374,43.3036 336,57.5C 335.333,71.8333 335.333,86.1667 336,100.5C 339.206,111.861 346.706,118.194 358.5,119.5C 348.211,127.12 338.211,135.12 328.5,143.5C 268.167,143.5 207.833,143.5 147.5,143.5C 152.011,141.832 155.511,138.832 158,134.5C 159.396,126.92 159.896,119.253 159.5,111.5C 159.5,90.1667 159.5,68.8333 159.5,47.5C 159.666,40.4921 159.5,33.4921 159,26.5C 156.643,21.6455 153.143,17.9788 148.5,15.5 Z"/></g>
<g><path style="opacity:1" fill="#5c3211" d="M 494.5,15.5 C 495.499,57.9967 495.832,100.663 495.5,143.5C 487.5,143.5 479.5,143.5 471.5,143.5C 466.167,143.5 460.833,143.5 455.5,143.5C 413.167,143.5 370.833,143.5 328.5,143.5C 338.211,135.12 348.211,127.12 358.5,119.5C 358.833,119.5 359.167,119.5 359.5,119.5C 366.508,119.666 373.508,119.5 380.5,119C 394.507,114.161 400.84,104.328 399.5,89.5C 399.5,89.1667 399.5,88.8333 399.5,88.5C 402.45,86.8847 405.116,84.8847 407.5,82.5C 407.5,94.8333 407.5,107.167 407.5,119.5C 412.833,119.5 418.167,119.5 423.5,119.5C 423.333,107.162 423.5,94.8288 424,82.5C 425.019,81.3128 426.186,80.3128 427.5,79.5C 434.152,85.6519 440.652,91.9852 447,98.5C 447.5,105.492 447.666,112.492 447.5,119.5C 452.833,119.5 458.167,119.5 463.5,119.5C 463.666,110.494 463.5,101.494 463,92.5C 455.35,84.0158 447.516,75.6824 439.5,67.5C 442.984,63.5151 446.651,59.6818 450.5,56C 454.821,55.501 459.154,55.3343 463.5,55.5C 463.5,50.5 463.5,45.5 463.5,40.5C 463.5,40.1667 463.5,39.8333 463.5,39.5C 474.414,32.2143 484.748,24.2143 494.5,15.5 Z"/></g>
<g><path style="opacity:1" fill="#fdfdfd" d="M 204.5,39.5 C 215.172,39.3335 225.839,39.5002 236.5,40C 245.793,41.9579 251.96,47.4579 255,56.5C 256.719,65.2748 254.553,72.9414 248.5,79.5C 259.167,93.6766 257.5,106.177 243.5,117C 235.992,119.018 228.325,119.851 220.5,119.5C 215.167,119.333 209.833,119.167 204.5,119C 203.069,118.535 201.903,117.701 201,116.5C 199.363,92.5631 199.03,68.5631 200,44.5C 201.025,42.313 202.525,40.6464 204.5,39.5 Z"/></g>
<g><path style="opacity:1" fill="#fdfdfd" d="M 281.5,39.5 C 290.506,39.3336 299.506,39.5002 308.5,40C 316.428,42.2573 322.261,47.0906 326,54.5C 327.62,70.0991 327.953,85.7658 327,101.5C 323.74,110.427 317.573,116.261 308.5,119C 299.5,119.667 290.5,119.667 281.5,119C 273,115.833 267.167,110 264,101.5C 263.333,86.8333 263.333,72.1667 264,57.5C 267.353,48.9815 273.186,42.9815 281.5,39.5 Z"/></g>
<g><path style="opacity:1" fill="#fdfdfd" d="M 399.5,88.5 C 399.5,88.8333 399.5,89.1667 399.5,89.5C 393.793,93.1143 388.293,97.1143 383,101.5C 382.536,100.906 382.369,100.239 382.5,99.5C 383.628,86.8788 383.795,74.2121 383,61.5C 382.167,58.6667 380.333,56.8333 377.5,56C 370.833,55.3333 364.167,55.3333 357.5,56C 354.667,56.8333 352.833,58.6667 352,61.5C 351.187,73.8792 351.354,86.2125 352.5,98.5C 353.369,100.868 355.035,102.368 357.5,103C 364.158,103.5 370.825,103.666 377.5,103.5C 379.379,103.393 379.712,103.893 378.5,105C 371.738,109.369 365.405,114.202 359.5,119.5C 359.167,119.5 358.833,119.5 358.5,119.5C 346.706,118.194 339.206,111.861 336,100.5C 335.333,86.1667 335.333,71.8333 336,57.5C 341.374,43.3036 351.707,37.3036 367,39.5C 382.692,37.0035 393.359,43.0035 399,57.5C 399.5,67.828 399.666,78.1613 399.5,88.5 Z"/></g>
<g><path style="opacity:1" fill="#fefefe" d="M 463.5,39.5 C 463.5,39.8333 463.5,40.1667 463.5,40.5C 444.55,54.1153 425.884,68.1153 407.5,82.5C 407.5,68.1667 407.5,53.8333 407.5,39.5C 412.833,39.5 418.167,39.5 423.5,39.5C 423.334,46.175 423.5,52.8417 424,59.5C 430.167,53.3333 436.333,47.1667 442.5,41C 449.385,39.5753 456.385,39.0753 463.5,39.5 Z"/></g>
<g><path style="opacity:1" fill="#d1d3d5" d="M 463.5,40.5 C 463.5,45.5 463.5,50.5 463.5,55.5C 459.154,55.3343 454.821,55.501 450.5,56C 446.651,59.6818 442.984,63.5151 439.5,67.5C 447.516,75.6824 455.35,84.0158 463,92.5C 463.5,101.494 463.666,110.494 463.5,119.5C 458.167,119.5 452.833,119.5 447.5,119.5C 447.666,112.492 447.5,105.492 447,98.5C 440.652,91.9852 434.152,85.6519 427.5,79.5C 426.186,80.3128 425.019,81.3128 424,82.5C 423.5,94.8288 423.333,107.162 423.5,119.5C 418.167,119.5 412.833,119.5 407.5,119.5C 407.5,107.167 407.5,94.8333 407.5,82.5C 425.884,68.1153 444.55,54.1153 463.5,40.5 Z"/></g>
<g><path style="opacity:1" fill="#a0ac58" d="M 15.5,47.5 C 29.8333,47.5 44.1667,47.5 58.5,47.5C 52.8333,68.8333 47.1667,90.1667 41.5,111.5C 41.1667,111.5 40.8333,111.5 40.5,111.5C 32.1667,111.5 23.8333,111.5 15.5,111.5C 15.5,90.1667 15.5,68.8333 15.5,47.5 Z"/></g>
<g><path style="opacity:1" fill="#84914c" d="M 58.5,47.5 C 60.1667,47.5 61.8333,47.5 63.5,47.5C 63.5,68.8333 63.5,90.1667 63.5,111.5C 56.1667,111.5 48.8333,111.5 41.5,111.5C 47.1667,90.1667 52.8333,68.8333 58.5,47.5 Z"/></g>
<g><path style="opacity:1" fill="#dc3232" d="M 63.5,47.5 C 77.8333,47.5 92.1667,47.5 106.5,47.5C 100.703,68.8907 94.7031,90.224 88.5,111.5C 80.1667,111.5 71.8333,111.5 63.5,111.5C 63.5,90.1667 63.5,68.8333 63.5,47.5 Z"/></g>
<g><path style="opacity:1" fill="#bc2b2b" d="M 106.5,47.5 C 108.167,47.5 109.833,47.5 111.5,47.5C 111.5,68.8333 111.5,90.1667 111.5,111.5C 103.833,111.5 96.1667,111.5 88.5,111.5C 94.7031,90.224 100.703,68.8907 106.5,47.5 Z"/></g>
<g><path style="opacity:1" fill="#a0ac58" d="M 111.5,47.5 C 125.833,47.5 140.167,47.5 154.5,47.5C 148.833,68.8333 143.167,90.1667 137.5,111.5C 137.167,111.5 136.833,111.5 136.5,111.5C 128.167,111.5 119.833,111.5 111.5,111.5C 111.5,90.1667 111.5,68.8333 111.5,47.5 Z"/></g>
<g><path style="opacity:1" fill="#84914c" d="M 154.5,47.5 C 156.167,47.5 157.833,47.5 159.5,47.5C 159.5,68.8333 159.5,90.1667 159.5,111.5C 152.167,111.5 144.833,111.5 137.5,111.5C 143.167,90.1667 148.833,68.8333 154.5,47.5 Z"/></g>
<g><path style="opacity:1" fill="#724120" d="M 215.5,55.5 C 221.842,55.3338 228.175,55.5005 234.5,56C 239.54,58.1959 240.707,61.6959 238,66.5C 235.749,68.3773 233.249,69.8773 230.5,71C 225.511,71.4993 220.511,71.6659 215.5,71.5C 215.5,66.1667 215.5,60.8333 215.5,55.5 Z"/></g>
<g><path style="opacity:1" fill="#724020" d="M 284.5,55.5 C 291.508,55.3337 298.508,55.5004 305.5,56C 307.329,56.2735 308.829,57.1068 310,58.5C 311.628,71.4048 311.961,84.4048 311,97.5C 310.727,99.3289 309.893,100.829 308.5,102C 300.579,103.568 292.579,103.901 284.5,103C 283.069,102.535 281.903,101.701 281,100.5C 279.389,87.2364 279.056,73.9031 280,60.5C 281.025,58.313 282.525,56.6464 284.5,55.5 Z"/></g>
<g><path style="opacity:1" fill="#72401f" d="M 382.5,99.5 C 380.809,100.864 379.142,102.197 377.5,103.5C 370.825,103.666 364.158,103.5 357.5,103C 355.035,102.368 353.369,100.868 352.5,98.5C 351.354,86.2125 351.187,73.8792 352,61.5C 352.833,58.6667 354.667,56.8333 357.5,56C 364.167,55.3333 370.833,55.3333 377.5,56C 380.333,56.8333 382.167,58.6667 383,61.5C 383.795,74.2121 383.628,86.8788 382.5,99.5 Z"/></g>
<g><path style="opacity:1" fill="#724120" d="M 215.5,87.5 C 222.909,86.6209 229.909,87.7875 236.5,91C 240.919,95.8191 240.252,99.8191 234.5,103C 228.175,103.5 221.842,103.666 215.5,103.5C 215.5,98.1667 215.5,92.8333 215.5,87.5 Z"/></g>
<g><path style="opacity:1" fill="#d1d4d5" d="M 399.5,89.5 C 400.84,104.328 394.507,114.161 380.5,119C 373.508,119.5 366.508,119.666 359.5,119.5C 365.405,114.202 371.738,109.369 378.5,105C 379.712,103.893 379.379,103.393 377.5,103.5C 379.142,102.197 380.809,100.864 382.5,99.5C 382.369,100.239 382.536,100.906 383,101.5C 388.293,97.1143 393.793,93.1143 399.5,89.5 Z"/></g>
<g><path style="opacity:1" fill="#6d8311" d="M 15.5,111.5 C 23.8333,111.5 32.1667,111.5 40.5,111.5C 37.7501,122.257 34.7501,132.923 31.5,143.5C 23.9807,143.823 18.814,140.49 16,133.5C 15.5003,126.174 15.3337,118.841 15.5,111.5 Z"/></g>
<g><path style="opacity:0.995" fill="#576a0e" d="M 40.5,111.5 C 40.8333,111.5 41.1667,111.5 41.5,111.5C 48.8333,111.5 56.1667,111.5 63.5,111.5C 63.5,118.833 63.5,126.167 63.5,133.5C 61.1667,137.833 57.8333,141.167 53.5,143.5C 48.8333,143.5 44.1667,143.5 39.5,143.5C 36.8333,143.5 34.1667,143.5 31.5,143.5C 34.7501,132.923 37.7501,122.257 40.5,111.5 Z"/></g>
<g><path style="opacity:0.997" fill="#b42827" d="M 63.5,111.5 C 71.8333,111.5 80.1667,111.5 88.5,111.5C 85.1923,122.062 82.1923,132.729 79.5,143.5C 77.5,143.5 75.5,143.5 73.5,143.5C 69.1667,141.167 65.8333,137.833 63.5,133.5C 63.5,126.167 63.5,118.833 63.5,111.5 Z"/></g>
<g><path style="opacity:0.993" fill="#9e2825" d="M 88.5,111.5 C 96.1667,111.5 103.833,111.5 111.5,111.5C 111.5,118.833 111.5,126.167 111.5,133.5C 109.167,137.833 105.833,141.167 101.5,143.5C 94.1667,143.5 86.8333,143.5 79.5,143.5C 82.1923,132.729 85.1923,122.062 88.5,111.5 Z"/></g>
<g><path style="opacity:1" fill="#6d8311" d="M 111.5,111.5 C 119.833,111.5 128.167,111.5 136.5,111.5C 133.75,122.257 130.75,132.923 127.5,143.5C 125.5,143.5 123.5,143.5 121.5,143.5C 117.167,141.167 113.833,137.833 111.5,133.5C 111.5,126.167 111.5,118.833 111.5,111.5 Z"/></g>
<g><path style="opacity:1" fill="#57690e" d="M 136.5,111.5 C 136.833,111.5 137.167,111.5 137.5,111.5C 144.833,111.5 152.167,111.5 159.5,111.5C 159.896,119.253 159.396,126.92 158,134.5C 155.511,138.832 152.011,141.832 147.5,143.5C 140.833,143.5 134.167,143.5 127.5,143.5C 130.75,132.923 133.75,122.257 136.5,111.5 Z"/></g>
<g><path style="opacity:1" fill="#a96b26" d="M 39.5,143.5 C 44.1667,143.5 48.8333,143.5 53.5,143.5C 60.1667,143.5 66.8333,143.5 73.5,143.5C 75.5,143.5 77.5,143.5 79.5,143.5C 86.8333,143.5 94.1667,143.5 101.5,143.5C 108.167,143.5 114.833,143.5 121.5,143.5C 123.5,143.5 125.5,143.5 127.5,143.5C 134.167,143.5 140.833,143.5 147.5,143.5C 207.833,143.5 268.167,143.5 328.5,143.5C 370.833,143.5 413.167,143.5 455.5,143.5C 455.5,154.167 455.5,164.833 455.5,175.5C 316.833,175.5 178.167,175.5 39.5,175.5C 39.5,164.833 39.5,154.167 39.5,143.5 Z"/></g>
<g><path style="opacity:1" fill="#82561c" d="M 455.5,143.5 C 460.833,143.5 466.167,143.5 471.5,143.5C 471.5,154.167 471.5,164.833 471.5,175.5C 466.167,175.5 460.833,175.5 455.5,175.5C 455.5,164.833 455.5,154.167 455.5,143.5 Z"/></g>
<g><path style="opacity:1" fill="#71401e" d="M 39.5,175.5 C 178.167,175.5 316.833,175.5 455.5,175.5C 460.833,175.5 466.167,175.5 471.5,175.5C 474.167,175.5 476.833,175.5 479.5,175.5C 479.5,180.833 479.5,186.167 479.5,191.5C 324.833,191.5 170.167,191.5 15.5,191.5C 15.5,186.167 15.5,180.833 15.5,175.5C 23.5,175.5 31.5,175.5 39.5,175.5 Z"/></g>
<g><path style="opacity:1" fill="#5b3210" d="M 479.5,175.5 C 484.833,175.5 490.167,175.5 495.5,175.5C 495.5,186.167 495.5,196.833 495.5,207.5C 487.5,207.5 479.5,207.5 471.5,207.5C 466.167,207.5 460.833,207.5 455.5,207.5C 316.833,207.5 178.167,207.5 39.5,207.5C 31.5,207.5 23.5,207.5 15.5,207.5C 15.5,202.167 15.5,196.833 15.5,191.5C 170.167,191.5 324.833,191.5 479.5,191.5C 479.5,186.167 479.5,180.833 479.5,175.5 Z"/></g>
<g><path style="opacity:1" fill="#a96b26" d="M 39.5,207.5 C 178.167,207.5 316.833,207.5 455.5,207.5C 455.5,218.167 455.5,228.833 455.5,239.5C 412.833,239.5 370.167,239.5 327.5,239.5C 306.167,239.5 284.833,239.5 263.5,239.5C 258.167,239.5 252.833,239.5 247.5,239.5C 226.167,239.5 204.833,239.5 183.5,239.5C 135.5,239.5 87.5,239.5 39.5,239.5C 39.5,228.833 39.5,218.167 39.5,207.5 Z"/></g>
<g><path style="opacity:1" fill="#82561c" d="M 455.5,207.5 C 460.833,207.5 466.167,207.5 471.5,207.5C 471.5,218.167 471.5,228.833 471.5,239.5C 466.167,239.5 460.833,239.5 455.5,239.5C 455.5,228.833 455.5,218.167 455.5,207.5 Z"/></g>
<g><path style="opacity:1" fill="#e1a259" d="M 39.5,239.5 C 87.5,239.5 135.5,239.5 183.5,239.5C 183.5,313.833 183.5,388.167 183.5,462.5C 183.5,462.833 183.5,463.167 183.5,463.5C 135.5,463.5 87.5,463.5 39.5,463.5C 39.5,388.833 39.5,314.167 39.5,239.5 Z"/></g>
<g><path style="opacity:1" fill="#535c76" d="M 183.5,239.5 C 204.833,239.5 226.167,239.5 247.5,239.5C 247.5,280.833 247.5,322.167 247.5,363.5C 247.5,363.833 247.5,364.167 247.5,364.5C 226.56,397.437 205.227,430.103 183.5,462.5C 183.5,388.167 183.5,313.833 183.5,239.5 Z"/></g>
<g><path style="opacity:1" fill="#fefefe" d="M 247.5,239.5 C 252.833,239.5 258.167,239.5 263.5,239.5C 263.5,272.5 263.5,305.5 263.5,338.5C 263.5,338.833 263.5,339.167 263.5,339.5C 258.167,347.5 252.833,355.5 247.5,363.5C 247.5,322.167 247.5,280.833 247.5,239.5 Z"/></g>
<g><path style="opacity:1" fill="#535c76" d="M 263.5,239.5 C 284.833,239.5 306.167,239.5 327.5,239.5C 327.5,239.833 327.5,240.167 327.5,240.5C 306.167,273.167 284.833,305.833 263.5,338.5C 263.5,305.5 263.5,272.5 263.5,239.5 Z"/></g>
<g><path style="opacity:1" fill="#e1a259" d="M 327.5,239.5 C 370.167,239.5 412.833,239.5 455.5,239.5C 455.5,314.167 455.5,388.833 455.5,463.5C 412.833,463.5 370.167,463.5 327.5,463.5C 327.5,389.167 327.5,314.833 327.5,240.5C 327.5,240.167 327.5,239.833 327.5,239.5 Z"/></g>
<g><path style="opacity:1" fill="#c4924d" d="M 455.5,239.5 C 460.833,239.5 466.167,239.5 471.5,239.5C 471.5,314.167 471.5,388.833 471.5,463.5C 466.167,463.5 460.833,463.5 455.5,463.5C 455.5,388.833 455.5,314.167 455.5,239.5 Z"/></g>
<g><path style="opacity:1" fill="#2e394f" d="M 327.5,240.5 C 327.5,314.833 327.5,389.167 327.5,463.5C 306.167,463.5 284.833,463.5 263.5,463.5C 263.5,422.167 263.5,380.833 263.5,339.5C 263.5,339.167 263.5,338.833 263.5,338.5C 284.833,305.833 306.167,273.167 327.5,240.5 Z"/></g>
<g><path style="opacity:1" fill="#545c76" d="M 143.5,304.5 C 127.261,335.977 111.261,367.643 95.5,399.5C 95.1667,399.5 94.8333,399.5 94.5,399.5C 89.5,399.5 84.5,399.5 79.5,399.5C 79.3333,365.165 79.5,330.832 80,296.5C 87.6988,275.067 102.532,267.567 124.5,274C 137.173,280.181 143.506,290.348 143.5,304.5 Z"/></g>
<g><path style="opacity:1" fill="#545c76" d="M 431.5,304.5 C 415.261,335.977 399.261,367.643 383.5,399.5C 378.167,399.5 372.833,399.5 367.5,399.5C 367.333,365.165 367.5,330.832 368,296.5C 375.699,275.067 390.532,267.567 412.5,274C 425.173,280.181 431.506,290.348 431.5,304.5 Z"/></g>
<g><path style="opacity:1" fill="#2e394f" d="M 143.5,304.5 C 143.5,336.167 143.5,367.833 143.5,399.5C 127.5,399.5 111.5,399.5 95.5,399.5C 111.261,367.643 127.261,335.977 143.5,304.5 Z"/></g>
<g><path style="opacity:1" fill="#2e394f" d="M 431.5,304.5 C 431.5,336.167 431.5,367.833 431.5,399.5C 415.5,399.5 399.5,399.5 383.5,399.5C 399.261,367.643 415.261,335.977 431.5,304.5 Z"/></g>
<g><path style="opacity:1" fill="#fefffe" d="M 215.5,335.5 C 220.833,335.5 226.167,335.5 231.5,335.5C 231.5,346.167 231.5,356.833 231.5,367.5C 226.167,367.5 220.833,367.5 215.5,367.5C 215.5,356.833 215.5,346.167 215.5,335.5 Z"/></g>
<g><path style="opacity:1" fill="#d1d5d6" d="M 279.5,335.5 C 284.833,335.5 290.167,335.5 295.5,335.5C 295.5,346.167 295.5,356.833 295.5,367.5C 290.167,367.5 284.833,367.5 279.5,367.5C 279.5,356.833 279.5,346.167 279.5,335.5 Z"/></g>
<g><path style="opacity:1" fill="#d2d5d7" d="M 263.5,339.5 C 263.5,380.833 263.5,422.167 263.5,463.5C 258.167,463.5 252.833,463.5 247.5,463.5C 247.5,430.5 247.5,397.5 247.5,364.5C 247.5,364.167 247.5,363.833 247.5,363.5C 252.833,355.5 258.167,347.5 263.5,339.5 Z"/></g>
<g><path style="opacity:1" fill="#2e394f" d="M 247.5,364.5 C 247.5,397.5 247.5,430.5 247.5,463.5C 226.167,463.5 204.833,463.5 183.5,463.5C 183.5,463.167 183.5,462.833 183.5,462.5C 205.227,430.103 226.56,397.437 247.5,364.5 Z"/></g>
<g><path style="opacity:1" fill="#fefffe" d="M 79.5,399.5 C 84.5,399.5 89.5,399.5 94.5,399.5C 90.0079,409.818 85.0079,419.818 79.5,429.5C 79.5,419.5 79.5,409.5 79.5,399.5 Z"/></g>
<g><path style="opacity:1" fill="#d1d4d7" d="M 94.5,399.5 C 94.8333,399.5 95.1667,399.5 95.5,399.5C 111.5,399.5 127.5,399.5 143.5,399.5C 143.5,410.167 143.5,420.833 143.5,431.5C 121.807,432.156 100.474,431.489 79.5,429.5C 85.0079,419.818 90.0079,409.818 94.5,399.5 Z"/></g>
<g><path style="opacity:1" fill="#fefefe" d="M 367.5,399.5 C 372.833,399.5 378.167,399.5 383.5,399.5C 378.405,410.025 373.072,420.358 367.5,430.5C 367.5,420.167 367.5,409.833 367.5,399.5 Z"/></g>
<g><path style="opacity:1" fill="#d2d5d7" d="M 383.5,399.5 C 399.5,399.5 415.5,399.5 431.5,399.5C 431.5,410.167 431.5,420.833 431.5,431.5C 409.993,431.831 388.66,431.497 367.5,430.5C 373.072,420.358 378.405,410.025 383.5,399.5 Z"/></g>
<g><path style="opacity:1" fill="#555557" d="M 39.5,463.5 C 87.5,463.5 135.5,463.5 183.5,463.5C 204.833,463.5 226.167,463.5 247.5,463.5C 252.833,463.5 258.167,463.5 263.5,463.5C 284.833,463.5 306.167,463.5 327.5,463.5C 370.167,463.5 412.833,463.5 455.5,463.5C 460.833,463.5 466.167,463.5 471.5,463.5C 479.5,463.5 487.5,463.5 495.5,463.5C 495.5,474.167 495.5,484.833 495.5,495.5C 335.5,495.5 175.5,495.5 15.5,495.5C 15.5,484.833 15.5,474.167 15.5,463.5C 23.5,463.5 31.5,463.5 39.5,463.5 Z"/></g>
</svg>
