<?xml version="1.0" encoding="UTF-8"?>
<!DOCTYPE svg PUBLIC "-//W3C//DTD SVG 1.1//EN" "http://www.w3.org/Graphics/SVG/1.1/DTD/svg11.dtd">
<svg xmlns="http://www.w3.org/2000/svg" version="1.1" width="512px" height="512px" style="shape-rendering:geometricPrecision; text-rendering:geometricPrecision; image-rendering:optimizeQuality; fill-rule:evenodd; clip-rule:evenodd" xmlns:xlink="http://www.w3.org/1999/xlink">
<g><path style="opacity:0.971" fill="#030303" d="M 223.5,-0.5 C 228.833,-0.5 234.167,-0.5 239.5,-0.5C 253.957,5.71615 268.457,12.0495 283,18.5C 286.507,13.3297 291.34,10.1631 297.5,9C 328.833,8.33333 360.167,8.33333 391.5,9C 394.821,10.4837 396.821,12.9837 397.5,16.5C 396.59,19.7926 394.59,22.2926 391.5,24C 360.5,24.3333 329.5,24.6667 298.5,25C 297.619,25.7083 296.953,26.5416 296.5,27.5C 295.505,38.3206 295.172,49.3206 295.5,60.5C 304.833,60.5 314.167,60.5 323.5,60.5C 330.871,61.8816 336.204,65.8816 339.5,72.5C 374.996,73.4984 410.663,73.8317 446.5,73.5C 446.83,57.9909 446.496,42.6576 445.5,27.5C 445.047,26.5416 444.381,25.7083 443.5,25C 436.167,24.6667 428.833,24.3333 421.5,24C 418.692,22.2067 417.026,19.7067 416.5,16.5C 416.327,12.8296 417.993,10.3296 421.5,9C 429.167,8.33333 436.833,8.33333 444.5,9C 451.737,10.5676 456.904,14.7342 460,21.5C 461.479,54.1043 461.979,86.7709 461.5,119.5C 478.436,120.269 487.769,129.102 489.5,146C 479.721,208.508 469.888,271.008 460,333.5C 457.664,344.368 451.164,351.202 440.5,354C 368.834,354.5 297.167,354.667 225.5,354.5C 228.355,365.902 231.522,377.235 235,388.5C 236.884,391.384 239.384,393.551 242.5,395C 306.167,395.333 369.833,395.667 433.5,396C 453.568,402.172 459.902,415.172 452.5,435C 463.179,450.309 465.346,466.809 459,484.5C 452.035,498.877 440.869,507.877 425.5,511.5C 419.167,511.5 412.833,511.5 406.5,511.5C 379.484,503.274 367.318,484.94 370,456.5C 370.452,453.851 371.286,451.351 372.5,449C 365.421,448.886 358.421,448.219 351.5,447C 349.549,445.266 348.549,443.099 348.5,440.5C 348.544,436.91 350.211,434.41 353.5,433C 363.5,432.667 373.5,432.333 383.5,432C 384.044,431.283 384.711,430.783 385.5,430.5C 397.329,420.292 410.996,416.792 426.5,420C 431.064,421.282 435.397,423.115 439.5,425.5C 441.481,419.291 439.481,414.791 433.5,412C 417.503,411.5 401.503,411.333 385.5,411.5C 337.499,411.667 289.499,411.5 241.5,411C 231.193,408.437 224.026,402.27 220,392.5C 215.32,377.295 211.153,361.961 207.5,346.5C 207.329,342.336 209.329,340.002 213.5,339.5C 288.891,339.991 364.224,339.491 439.5,338C 442.754,335.658 444.588,332.491 445,328.5C 454.5,267.833 464,207.167 473.5,146.5C 473.519,141.357 471.186,137.857 466.5,136C 453.838,135.5 441.171,135.333 428.5,135.5C 335.166,135.667 241.833,135.5 148.5,135C 146.714,134.215 145.214,133.049 144,131.5C 138.822,113.121 133.489,94.7881 128,76.5C 126.878,74.3762 125.378,72.5429 123.5,71C 117.772,69.877 111.939,69.377 106,69.5C 100.833,69.8333 95.6667,70.1667 90.5,70.5C 91.7028,77.1455 91.7028,83.8122 90.5,90.5C 95.8437,90.334 101.177,90.5006 106.5,91C 109.381,92.2506 111.214,94.4173 112,97.5C 119.179,122.367 126.346,147.2 133.5,172C 132.826,175.83 130.826,178.664 127.5,180.5C 122.938,180.639 119.771,178.639 118,174.5C 111.189,151.903 104.689,129.236 98.5,106.5C 91.825,106.334 85.1583,106.5 78.5,107C 65.3205,116.192 51.6538,116.858 37.5,109C 21.304,95.6786 17.804,79.5119 27,60.5C 38.4332,45.2611 53.2665,40.7611 71.5,47C 74.672,48.7519 77.672,50.7519 80.5,53C 95.8786,53.082 111.212,53.7487 126.5,55C 131.907,57.4158 136.407,60.9158 140,65.5C 145.949,82.6249 151.282,99.9583 156,117.5C 157.049,119.107 158.549,119.773 160.5,119.5C 160.333,104.496 160.5,89.4963 161,74.5C 163.736,66.7648 169.07,61.7648 177,59.5C 186.749,42.9997 196.749,26.6664 207,10.5C 211.632,5.33969 217.132,1.67302 223.5,-0.5 Z"/></g>
<g><path style="opacity:1" fill="#29bbc7" d="M 250.5,21.5 C 259.121,32.746 264.454,45.4127 266.5,59.5C 242.833,59.5 219.167,59.5 195.5,59.5C 203.604,44.7977 212.604,30.631 222.5,17C 226.218,14.7016 230.218,14.0349 234.5,15C 239.972,16.9056 245.306,19.0722 250.5,21.5 Z"/></g>
<g><path style="opacity:1" fill="#fee076" d="M 397.5,16.5 C 401.5,16.5 405.5,16.5 409.5,16.5C 411.273,17.8923 413.273,19.059 415.5,20C 416.667,21.8333 417.833,23.6667 419,25.5C 419.5,41.1631 419.667,56.8298 419.5,72.5C 392.833,72.5 366.167,72.5 339.5,72.5C 336.204,65.8816 330.871,61.8816 323.5,60.5C 314.682,59.5067 305.682,59.1734 296.5,59.5C 296.5,48.8333 296.5,38.1667 296.5,27.5C 296.953,26.5416 297.619,25.7083 298.5,25C 329.5,24.6667 360.5,24.3333 391.5,24C 394.59,22.2926 396.59,19.7926 397.5,16.5 Z"/></g>
<g><path style="opacity:1" fill="#fdcd84" d="M 409.5,16.5 C 411.833,16.5 414.167,16.5 416.5,16.5C 417.026,19.7067 418.692,22.2067 421.5,24C 428.833,24.3333 436.167,24.6667 443.5,25C 444.381,25.7083 445.047,26.5416 445.5,27.5C 445.5,42.5 445.5,57.5 445.5,72.5C 436.833,72.5 428.167,72.5 419.5,72.5C 419.667,56.8298 419.5,41.1631 419,25.5C 417.833,23.6667 416.667,21.8333 415.5,20C 413.273,19.059 411.273,17.8923 409.5,16.5 Z"/></g>
<g><path style="opacity:1" fill="#0ea2af" d="M 250.5,21.5 C 260.381,25.6899 270.215,30.0232 280,34.5C 280.5,43.1603 280.666,51.8269 280.5,60.5C 251.426,60.8327 223.093,60.4994 195.5,59.5C 219.167,59.5 242.833,59.5 266.5,59.5C 264.454,45.4127 259.121,32.746 250.5,21.5 Z"/></g>
<g><path style="opacity:1" fill="#8a7445" d="M 445.5,27.5 C 446.496,42.6576 446.83,57.9909 446.5,73.5C 410.663,73.8317 374.996,73.4984 339.5,72.5C 366.167,72.5 392.833,72.5 419.5,72.5C 428.167,72.5 436.833,72.5 445.5,72.5C 445.5,57.5 445.5,42.5 445.5,27.5 Z"/></g>
<g><path style="opacity:1" fill="#998747" d="M 296.5,27.5 C 296.5,38.1667 296.5,48.8333 296.5,59.5C 305.682,59.1734 314.682,59.5067 323.5,60.5C 314.167,60.5 304.833,60.5 295.5,60.5C 295.172,49.3206 295.505,38.3206 296.5,27.5 Z"/></g>
<g><path style="opacity:1" fill="#f87d84" d="M 52.5,59.5 C 68.9983,59.1638 76.8316,67.1638 76,83.5C 73.2104,93.1688 66.7104,98.5022 56.5,99.5C 38.75,94.9991 33.5834,84.3324 41,67.5C 44.4821,64.1608 48.3155,61.4942 52.5,59.5 Z"/></g>
<g><path style="opacity:0.999" fill="#dceaef" d="M 428.5,135.5 C 428.942,137.972 429.275,140.472 429.5,143C 428.807,147.577 427.807,152.077 426.5,156.5C 337.166,156.333 247.833,156.5 158.5,157C 154.672,159.136 153.172,162.303 154,166.5C 168.451,216.476 183.284,266.309 198.5,316C 199.745,316.791 201.078,317.291 202.5,317.5C 271.331,318.499 340.331,318.833 409.5,318.5C 411.399,325.18 410.732,331.513 407.5,337.5C 342.668,338.167 278.001,338.833 213.5,339.5C 209.329,340.002 207.329,342.336 207.5,346.5C 211.153,361.961 215.32,377.295 220,392.5C 224.026,402.27 231.193,408.437 241.5,411C 289.499,411.5 337.499,411.667 385.5,411.5C 387.985,417.8 387.985,424.134 385.5,430.5C 384.711,430.783 384.044,431.283 383.5,432C 373.5,432.333 363.5,432.667 353.5,433C 350.211,434.41 348.544,436.91 348.5,440.5C 342.167,440.5 335.833,440.5 329.5,440.5C 328.892,437.042 326.892,434.542 323.5,433C 303.167,432.667 282.833,432.333 262.5,432C 249.072,419.641 233.572,416.141 216,421.5C 208.826,415.981 203.492,408.981 200,400.5C 181.197,335.092 162.197,269.759 143,204.5C 141.272,199.549 137.772,197.549 132.5,198.5C 130.834,192.501 129.167,186.501 127.5,180.5C 130.826,178.664 132.826,175.83 133.5,172C 126.346,147.2 119.179,122.367 112,97.5C 111.214,94.4173 109.381,92.2506 106.5,91C 101.177,90.5006 95.8437,90.334 90.5,90.5C 91.7028,83.8122 91.7028,77.1455 90.5,70.5C 95.6667,70.1667 100.833,69.8333 106,69.5C 111.939,69.377 117.772,69.877 123.5,71C 125.378,72.5429 126.878,74.3762 128,76.5C 133.489,94.7881 138.822,113.121 144,131.5C 145.214,133.049 146.714,134.215 148.5,135C 241.833,135.5 335.166,135.667 428.5,135.5 Z"/></g>
<g><path style="opacity:1" fill="#fc7f86" d="M 300.5,75.5 C 301.483,90.0884 301.816,104.755 301.5,119.5C 259.833,119.5 218.167,119.5 176.5,119.5C 176.5,105.833 176.5,92.1667 176.5,78.5C 176.953,77.5416 177.619,76.7083 178.5,76C 219.165,75.5 259.832,75.3333 300.5,75.5 Z"/></g>
<g><path style="opacity:1" fill="#fd636e" d="M 300.5,75.5 C 308.174,75.3336 315.841,75.5003 323.5,76C 324.823,76.8159 325.489,77.9826 325.5,79.5C 325.5,92.8333 325.5,106.167 325.5,119.5C 317.5,119.5 309.5,119.5 301.5,119.5C 301.816,104.755 301.483,90.0884 300.5,75.5 Z"/></g>
<g><path style="opacity:1" fill="#6b5d33" d="M 445.5,88.5 C 436.833,88.5 428.167,88.5 419.5,88.5C 393.5,88.5 367.5,88.5 341.5,88.5C 341.5,98.8333 341.5,109.167 341.5,119.5C 341.5,119.833 341.5,120.167 341.5,120.5C 340.505,109.679 340.172,98.6794 340.5,87.5C 375.671,87.1683 410.671,87.5016 445.5,88.5 Z"/></g>
<g><path style="opacity:1" fill="#ffe077" d="M 419.5,88.5 C 419.5,98.8333 419.5,109.167 419.5,119.5C 393.5,119.5 367.5,119.5 341.5,119.5C 341.5,109.167 341.5,98.8333 341.5,88.5C 367.5,88.5 393.5,88.5 419.5,88.5 Z"/></g>
<g><path style="opacity:1" fill="#fdce84" d="M 419.5,88.5 C 428.167,88.5 436.833,88.5 445.5,88.5C 445.5,98.8333 445.5,109.167 445.5,119.5C 436.833,119.5 428.167,119.5 419.5,119.5C 419.5,109.167 419.5,98.8333 419.5,88.5 Z"/></g>
<g><path style="opacity:1" fill="#af5459" d="M 176.5,78.5 C 176.5,92.1667 176.5,105.833 176.5,119.5C 218.167,119.5 259.833,119.5 301.5,119.5C 309.5,119.5 317.5,119.5 325.5,119.5C 325.5,106.167 325.5,92.8333 325.5,79.5C 326.496,92.9898 326.829,106.656 326.5,120.5C 276.167,120.5 225.833,120.5 175.5,120.5C 175.171,106.323 175.504,92.3234 176.5,78.5 Z"/></g>
<g><path style="opacity:1" fill="#ae9654" d="M 445.5,88.5 C 446.494,98.9869 446.828,109.654 446.5,120.5C 411.5,120.5 376.5,120.5 341.5,120.5C 341.5,120.167 341.5,119.833 341.5,119.5C 367.5,119.5 393.5,119.5 419.5,119.5C 428.167,119.5 436.833,119.5 445.5,119.5C 445.5,109.167 445.5,98.8333 445.5,88.5 Z"/></g>
<g><path style="opacity:1" fill="#c4dde0" d="M 428.5,135.5 C 441.171,135.333 453.838,135.5 466.5,136C 471.186,137.857 473.519,141.357 473.5,146.5C 464,207.167 454.5,267.833 445,328.5C 444.588,332.491 442.754,335.658 439.5,338C 364.224,339.491 288.891,339.991 213.5,339.5C 278.001,338.833 342.668,338.167 407.5,337.5C 410.732,331.513 411.399,325.18 409.5,318.5C 340.331,318.833 271.331,318.499 202.5,317.5C 276.249,317.994 349.916,317.494 423.5,316C 424.701,315.097 425.535,313.931 426,312.5C 433.675,262.107 441.341,211.773 449,161.5C 447.457,159.622 445.624,158.122 443.5,157C 437.843,156.501 432.176,156.334 426.5,156.5C 427.807,152.077 428.807,147.577 429.5,143C 429.275,140.472 428.942,137.972 428.5,135.5 Z"/></g>
<g><path style="opacity:1" fill="#030303" d="M 426.5,156.5 C 432.176,156.334 437.843,156.501 443.5,157C 445.624,158.122 447.457,159.622 449,161.5C 441.341,211.773 433.675,262.107 426,312.5C 425.535,313.931 424.701,315.097 423.5,316C 349.916,317.494 276.249,317.994 202.5,317.5C 201.078,317.291 199.745,316.791 198.5,316C 183.284,266.309 168.451,216.476 154,166.5C 153.172,162.303 154.672,159.136 158.5,157C 247.833,156.5 337.166,156.333 426.5,156.5 Z"/></g>
<g><path style="opacity:1" fill="#658b96" d="M 171.5,171.5 C 185.167,171.5 198.833,171.5 212.5,171.5C 213.602,186.159 214.602,200.826 215.5,215.5C 204.833,215.5 194.167,215.5 183.5,215.5C 179.813,200.752 175.813,186.085 171.5,171.5 Z"/></g>
<g><path style="opacity:1" fill="#c7e1e4" d="M 305.5,224.5 C 306.497,207.341 306.83,190.008 306.5,172.5C 310.167,172.5 313.833,172.5 317.5,172.5C 317.17,190.008 317.503,207.341 318.5,224.5C 319.203,226.716 320.536,228.549 322.5,230C 340.924,230.973 359.257,230.64 377.5,229C 378.701,228.097 379.535,226.931 380,225.5C 381.996,207.536 383.496,189.536 384.5,171.5C 388.833,171.5 393.167,171.5 397.5,171.5C 395.392,189.788 394.226,208.122 394,226.5C 394.833,228 396,229.167 397.5,230C 406.16,230.5 414.827,230.666 423.5,230.5C 423.156,234.228 422.49,237.895 421.5,241.5C 412.852,242.332 404.186,242.832 395.5,243C 394,244.5 392.5,246 391,247.5C 389.121,265.806 387.621,284.139 386.5,302.5C 382.5,302.5 378.5,302.5 374.5,302.5C 374.5,300.833 374.5,299.167 374.5,297.5C 375.199,281.948 376.532,266.448 378.5,251C 378.207,247.089 376.207,244.422 372.5,243C 356.167,242.333 339.833,242.333 323.5,243C 321.333,243.833 319.833,245.333 319,247.5C 318.5,265.83 318.333,284.164 318.5,302.5C 314.5,302.5 310.5,302.5 306.5,302.5C 306.667,284.497 306.5,266.497 306,248.5C 304.833,246 303,244.167 300.5,243C 284.167,242.333 267.833,242.333 251.5,243C 249.714,243.785 248.214,244.951 247,246.5C 247.653,263.493 248.486,280.493 249.5,297.5C 249.5,299.167 249.5,300.833 249.5,302.5C 245.833,302.5 242.167,302.5 238.5,302.5C 236.63,285.685 235.13,268.685 234,251.5C 233.87,247.061 231.704,244.228 227.5,243C 215.486,242.833 203.486,242.333 191.5,241.5C 190.752,238.095 189.752,234.762 188.5,231.5C 201.154,230.667 213.82,230.167 226.5,230C 229.934,228.471 231.6,225.804 231.5,222C 229.973,205.177 228.64,188.343 227.5,171.5C 231.5,171.5 235.5,171.5 239.5,171.5C 241.164,189.479 242.664,207.479 244,225.5C 244.465,226.931 245.299,228.097 246.5,229C 264.743,230.64 283.076,230.973 301.5,230C 303.928,228.982 305.262,227.148 305.5,224.5 Z"/></g>
<g><path style="opacity:1" fill="#648a94" d="M 254.5,171.5 C 266.833,171.5 279.167,171.5 291.5,171.5C 291.5,186.167 291.5,200.833 291.5,215.5C 280.167,215.5 268.833,215.5 257.5,215.5C 256.831,200.807 255.831,186.14 254.5,171.5 Z"/></g>
<g><path style="opacity:1" fill="#8ea0a2" d="M 318.5,224.5 C 317.503,207.341 317.17,190.008 317.5,172.5C 313.833,172.5 310.167,172.5 306.5,172.5C 306.83,190.008 306.497,207.341 305.5,224.5C 305.5,206.833 305.5,189.167 305.5,171.5C 309.833,171.5 314.167,171.5 318.5,171.5C 318.5,189.167 318.5,206.833 318.5,224.5 Z"/></g>
<g><path style="opacity:1" fill="#668c97" d="M 333.5,171.5 C 345.5,171.5 357.5,171.5 369.5,171.5C 368.405,186.16 367.405,200.826 366.5,215.5C 355.5,215.5 344.5,215.5 333.5,215.5C 333.5,200.833 333.5,186.167 333.5,171.5 Z"/></g>
<g><path style="opacity:1" fill="#658a95" d="M 412.5,171.5 C 419.167,171.5 425.833,171.5 432.5,171.5C 430.11,186.116 428.11,200.783 426.5,215.5C 420.5,215.5 414.5,215.5 408.5,215.5C 409.669,200.817 411.002,186.15 412.5,171.5 Z"/></g>
<g><path style="opacity:0.961" fill="#020202" d="M 132.5,198.5 C 137.772,197.549 141.272,199.549 143,204.5C 162.197,269.759 181.197,335.092 200,400.5C 203.492,408.981 208.826,415.981 216,421.5C 233.572,416.141 249.072,419.641 262.5,432C 282.833,432.333 303.167,432.667 323.5,433C 326.892,434.542 328.892,437.042 329.5,440.5C 328.724,444.443 326.391,446.943 322.5,448C 306.503,448.5 290.503,448.667 274.5,448.5C 281.756,480.343 270.089,501.343 239.5,511.5C 233.167,511.5 226.833,511.5 220.5,511.5C 191.843,502.214 180.009,482.548 185,452.5C 187.782,443.059 192.949,435.226 200.5,429C 191.971,420.45 186.138,410.283 183,398.5C 164.822,335.455 146.489,272.455 128,209.5C 126.391,204.391 127.891,200.725 132.5,198.5 Z"/></g>
<g><path style="opacity:1" fill="#658a95" d="M 196.5,257.5 C 204.167,257.5 211.833,257.5 219.5,257.5C 220.666,272.488 221.666,287.488 222.5,302.5C 218.116,302.826 213.783,302.492 209.5,301.5C 204.853,286.912 200.52,272.245 196.5,257.5 Z"/></g>
<g><path style="opacity:1" fill="#668c97" d="M 290.5,302.5 C 282.167,302.5 273.833,302.5 265.5,302.5C 264.5,289.165 263.5,275.832 262.5,262.5C 262.5,261.167 262.5,259.833 262.5,258.5C 271.833,258.5 281.167,258.5 290.5,258.5C 290.5,273.167 290.5,287.833 290.5,302.5 Z"/></g>
<g><path style="opacity:1" fill="#3a4f56" d="M 290.5,302.5 C 290.5,287.833 290.5,273.167 290.5,258.5C 281.167,258.5 271.833,258.5 262.5,258.5C 262.5,259.833 262.5,261.167 262.5,262.5C 261.549,261.081 261.216,259.415 261.5,257.5C 271.5,257.5 281.5,257.5 291.5,257.5C 291.829,272.676 291.496,287.676 290.5,302.5 Z"/></g>
<g><path style="opacity:1" fill="#658b96" d="M 333.5,257.5 C 343.167,257.5 352.833,257.5 362.5,257.5C 361.132,272.477 360.132,287.477 359.5,302.5C 350.833,302.5 342.167,302.5 333.5,302.5C 333.5,287.5 333.5,272.5 333.5,257.5 Z"/></g>
<g><path style="opacity:1" fill="#638893" d="M 404.5,257.5 C 409.5,257.5 414.5,257.5 419.5,257.5C 416.781,272.432 414.447,287.432 412.5,302.5C 408.833,302.5 405.167,302.5 401.5,302.5C 402.551,287.504 403.551,272.504 404.5,257.5 Z"/></g>
<g><path style="opacity:1" fill="#5c696a" d="M 249.5,297.5 C 250.461,299.265 250.795,301.265 250.5,303.5C 246.298,303.817 242.298,303.483 238.5,302.5C 242.167,302.5 245.833,302.5 249.5,302.5C 249.5,300.833 249.5,299.167 249.5,297.5 Z"/></g>
<g><path style="opacity:1" fill="#4b5556" d="M 374.5,297.5 C 374.5,299.167 374.5,300.833 374.5,302.5C 378.5,302.5 382.5,302.5 386.5,302.5C 382.366,303.485 378.032,303.818 373.5,303.5C 373.205,301.265 373.539,299.265 374.5,297.5 Z"/></g>
<g><path style="opacity:1" fill="#c4dde0" d="M 385.5,411.5 C 401.503,411.333 417.503,411.5 433.5,412C 439.481,414.791 441.481,419.291 439.5,425.5C 435.397,423.115 431.064,421.282 426.5,420C 410.996,416.792 397.329,420.292 385.5,430.5C 387.985,424.134 387.985,417.8 385.5,411.5 Z"/></g>
<g><path style="opacity:1" fill="#638893" d="M 225.5,433.5 C 249.367,433.865 261.2,445.865 261,469.5C 256.157,489.016 243.657,497.849 223.5,496C 205.813,490.3 197.646,478.133 199,459.5C 203.113,445.886 211.946,437.219 225.5,433.5 Z"/></g>
<g><path style="opacity:1" fill="#638893" d="M 411.5,433.5 C 435.245,433.926 447.078,445.926 447,469.5C 442.144,489.021 429.644,497.854 409.5,496C 391.785,490.279 383.618,478.112 385,459.5C 388.783,445.552 397.617,436.886 411.5,433.5 Z"/></g>
<g><path style="opacity:1" fill="#020303" d="M 223.5,444.5 C 246.275,444.099 254.441,454.766 248,476.5C 236.684,489.387 225.018,489.721 213,477.5C 205.651,462.898 209.151,451.898 223.5,444.5 Z"/></g>
<g><path style="opacity:1" fill="#020303" d="M 409.5,444.5 C 432.24,444.068 440.406,454.735 434,476.5C 422.638,489.395 410.971,489.728 399,477.5C 391.613,462.958 395.113,451.958 409.5,444.5 Z"/></g>
<g><path style="opacity:1" fill="#d1dee3" d="M 226.5,459.5 C 233.282,458.125 236.448,460.791 236,467.5C 232.645,472.31 228.979,472.644 225,468.5C 224.068,465.177 224.568,462.177 226.5,459.5 Z"/></g>
<g><path style="opacity:1" fill="#d1dee2" d="M 412.5,459.5 C 419.282,458.125 422.448,460.791 422,467.5C 418.645,472.31 414.979,472.644 411,468.5C 410.068,465.177 410.568,462.177 412.5,459.5 Z"/></g>
</svg>
